# xmcd CD database file
#
# Track frame offsets:
#	150
#	19601
#	48803
#	89155
#	116525
#	156284
#	174225
#	198114
#
# Disc length: 3230 seconds
#
# Revision: 0
# Processed by: cddbd v1.5.1PL2 Copyright (c) Steve Scherf et al.
# Submitted via: CDex 1.51
#
DISCID=5a0c9c08
DTITLE=deva premal - dakshima
DYEAR=1900
DGENRE=New Age
TTITLE0=Deva Premal - Om Hraum Mitraya
TTITLE1=Deva Premal - Om Namah Shivaya
TTITLE2=Deva Premal - Guru Rinpoche Mantra
TTITLE3=Deva Premal - Aad Guray
TTITLE4=Deva Premal - Homage to Krishna
TTITLE5=Deva Premal - Om Purnam I
TTITLE6=Deva Premal - Om Purnam II
TTITLE7=Deva Premal - Brahma Nandam
EXTD=
EXTT0=
EXTT1=
EXTT2=
EXTT3=
EXTT4=
EXTT5=
EXTT6=
EXTT7=
PLAYORDER=
